<svg width="43" height="43" viewBox="0 0 43 43" fill="none" xmlns="http://www.w3.org/2000/svg">
<circle cx="21.5" cy="21.5" r="21.5" fill="url(#paint0_linear_2616_31)"/>
<circle cx="21.5" cy="21.5" r="21" stroke="url(#paint1_linear_2616_31)" stroke-opacity="0.2"/>
<path d="M10.5365 25.3749H16.5554C16.4102 24.1509 16.3334 22.849 16.3334 21.4999C16.3334 20.1508 16.4102 18.849 16.5554 17.6249H10.5365C10.1081 18.8369 9.87504 20.1412 9.87504 21.4999C9.87504 22.8586 10.1081 24.1629 10.5365 25.3749ZM11.0834 26.6666C12.621 29.7606 15.4965 32.0724 18.9529 32.845C17.9465 31.4752 17.1757 29.2979 16.7386 26.6666H11.0834ZM32.4636 25.3749C32.8919 24.1629 33.125 22.8586 33.125 21.4999C33.125 20.1412 32.8919 18.8369 32.4636 17.6249H26.4447C26.5899 18.849 26.6667 20.1508 26.6667 21.4999C26.6667 22.849 26.5899 24.1509 26.4447 25.3749H32.4636ZM31.9167 26.6666H26.2614C25.8243 29.2979 25.0536 31.4752 24.0472 32.845C27.5036 32.0724 30.3791 29.7606 31.9167 26.6666ZM17.8632 25.3749H25.1369C25.2898 24.1638 25.375 22.8598 25.375 21.4999C25.375 20.14 25.2898 18.836 25.1369 17.6249H17.8632C17.7103 18.836 17.625 20.14 17.625 21.4999C17.625 22.8598 17.7103 24.1638 17.8632 25.3749ZM18.0577 26.6666C18.7322 30.5 20.1026 33.1249 21.5 33.1249C22.8975 33.1249 24.2679 30.5 24.9424 26.6666H18.0577ZM11.0834 16.3333H16.7386C17.1757 13.702 17.9465 11.5247 18.9529 10.1548C15.4965 10.9275 12.621 13.2393 11.0834 16.3333ZM31.9167 16.3333C30.3791 13.2393 27.5036 10.9275 24.0472 10.1548C25.0536 11.5247 25.8243 13.702 26.2614 16.3333H31.9167ZM18.0577 16.3333H24.9424C24.2679 12.4998 22.8975 9.87492 21.5 9.87492C20.1026 9.87492 18.7322 12.4998 18.0577 16.3333ZM21.5 34.4166C14.3664 34.4166 8.58337 28.6336 8.58337 21.4999C8.58337 14.3662 14.3664 8.58325 21.5 8.58325C28.6337 8.58325 34.4167 14.3662 34.4167 21.4999C34.4167 28.6336 28.6337 34.4166 21.5 34.4166Z" fill="url(#paint2_linear_2616_31)"/>
<defs>
<linearGradient id="paint0_linear_2616_31" x1="15" y1="4.5" x2="27.5" y2="36.5" gradientUnits="userSpaceOnUse">
<stop stop-color="#DF20FE"/>
<stop offset="1" stop-color="#7B0F8C"/>
</linearGradient>
<linearGradient id="paint1_linear_2616_31" x1="21.5" y1="0" x2="21.5" y2="43" gradientUnits="userSpaceOnUse">
<stop stop-color="white"/>
<stop offset="1" stop-color="white" stop-opacity="0"/>
</linearGradient>
<linearGradient id="paint2_linear_2616_31" x1="26" y1="31" x2="15.5" y2="11" gradientUnits="userSpaceOnUse">
<stop stop-color="#5E096C"/>
<stop offset="1" stop-color="#951EA9"/>
</linearGradient>
</defs>
</svg>
