<svg width="43" height="43" viewBox="0 0 43 43" fill="none" xmlns="http://www.w3.org/2000/svg">
<circle cx="21.5" cy="21.5" r="21.5" fill="url(#paint0_linear_2616_30)"/>
<circle cx="21.5" cy="21.5" r="21" stroke="url(#paint1_linear_2616_30)" stroke-opacity="0.2"/>
<path d="M33.732 28.2015C32.8014 26.5123 29.5697 24.6808 29.4274 24.6007C29.0121 24.3737 28.5788 24.2536 28.1733 24.2536V24.2536C27.0701 24.2536 26.4659 25.4725 25.6504 26.2155C25.6195 26.2436 25.5945 26.2645 25.5766 26.2769C24.4754 26.9942 23.6134 26.9128 22.6596 25.997L17.3363 20.8855C16.3886 19.9756 16.3014 19.1377 17.0434 18.0862C17.091 18.0232 17.2555 17.8707 17.4743 17.6804C18.0619 17.1689 18.8739 16.7918 19.0901 16.0433V16.0433C19.2342 15.5436 19.1281 14.9557 18.7879 14.3831C18.7077 14.2513 16.7992 11.148 15.0408 10.255C14.7127 10.0881 14.3429 10 13.9721 10C13.3613 10 12.7866 10.2287 12.3547 10.643L11.1784 11.7719C9.31811 13.5576 8.64471 15.5818 9.17583 17.788C9.61889 19.6267 10.9101 21.5833 13.0142 23.603L19.8293 30.1465C22.4923 32.7033 25.0311 34 27.3752 34C29.0997 34 30.7065 33.2965 32.1516 31.9095L33.3274 30.7806C34.042 30.0949 34.2042 29.0581 33.732 28.2015Z" fill="url(#paint2_linear_2616_30)"/>
<path d="M22.6999 21.0897C22.7564 21.1124 22.8167 21.1239 22.8769 21.1239H28.4384C28.6942 21.1239 28.9018 20.925 28.9018 20.6789C28.9018 20.4329 28.6942 20.234 28.4384 20.234V20.234C26.8283 20.234 26.0389 18.2722 27.2004 17.157L31.0833 13.4289C31.2645 13.2549 31.2645 12.9737 31.0833 12.7997C30.9021 12.6257 30.6092 12.6257 30.428 12.7997L26.4173 16.6505C25.2618 17.7599 23.3404 16.941 23.3404 15.3392V15.3392C23.3404 15.0931 23.1327 14.8942 22.8769 14.8942C22.6211 14.8942 22.4135 15.0931 22.4135 15.3392V20.6789C22.4135 20.7368 22.426 20.7946 22.4491 20.8489C22.4964 20.9579 22.5868 21.0447 22.6999 21.0897Z" fill="url(#paint3_linear_2616_30)"/>
<defs>
<linearGradient id="paint0_linear_2616_30" x1="21.5" y1="0" x2="21.5" y2="43" gradientUnits="userSpaceOnUse">
<stop stop-color="#2079FE"/>
<stop offset="1" stop-color="#2079FE" stop-opacity="0"/>
</linearGradient>
<linearGradient id="paint1_linear_2616_30" x1="21.5" y1="0" x2="22" y2="26" gradientUnits="userSpaceOnUse">
<stop stop-color="white"/>
<stop offset="1" stop-color="white" stop-opacity="0"/>
</linearGradient>
<linearGradient id="paint2_linear_2616_30" x1="30" y1="38" x2="25.5" y2="7.5" gradientUnits="userSpaceOnUse">
<stop stop-color="#A6C5F1"/>
<stop offset="1" stop-color="#2177F6"/>
</linearGradient>
<linearGradient id="paint3_linear_2616_30" x1="26.8163" y1="12.6692" x2="26.8163" y2="21.1239" gradientUnits="userSpaceOnUse">
<stop stop-color="#6BA2F7"/>
<stop offset="1" stop-color="#A6C5F2"/>
</linearGradient>
</defs>
</svg>
