<?xml version="1.0" encoding="utf-8"?><svg xmlns="http://www.w3.org/2000/svg" xmlns:xlink="http://www.w3.org/1999/xlink"><symbol viewBox="0 0 49 49" id="behance" xmlns="http://www.w3.org/2000/svg"><path d="M1.531 10.336v28.328h13.686c1.268 0 10-.257 10-8.23 0-4.983-3.427-6.676-5.167-7.178 1.28-.604 3.828-2.04 3.828-5.886 0-2.141-.305-7.034-9.044-7.034H1.531zm31.2 2.632v2.584h10.575v-2.584H32.73zm-24.98 2.2h5.839c.55 0 4.259-.292 4.259 3.255 0 3.032-2.68 3.35-3.78 3.35H7.751v-6.604zm30.53 2.729c-7.997 0-9.666 6.944-9.666 9.953 0 8.93 7.322 9.953 9.666 9.953 6.323 0 8.117-4.092 8.853-6.364H42.54c-.18.586-1.52 2.488-4.067 2.488-4.271 0-4.642-3.338-4.642-4.833h13.59c.275-5.168-1.986-11.198-9.14-11.198zm-.143 3.876c1.274 0 2.303.37 2.919 1.052.616.688 1.07 1.693 1.196 3.015H33.83a6.09 6.09 0 01.24-1.244 3.67 3.67 0 01.67-1.34c.334-.413.8-.772 1.34-1.053.55-.287 1.231-.43 2.057-.43zM7.752 26.03h6.747c1.34 0 4.498.21 4.498 4.068 0 3.738-3.978 3.732-4.594 3.732H7.752v-7.8z"/></symbol><symbol viewBox="0 0 49 46" id="gmail" xmlns="http://www.w3.org/2000/svg"><path d="M11.955 13.11a1.618 1.618 0 00-1.511.03c-.463.26-.746.729-.746 1.235v18.208c0 .794.685 1.438 1.531 1.438.846 0 1.531-.644 1.531-1.438V16.782l11.014 5.567c.453.23.999.23 1.452 0l11.014-5.567v15.801c0 .794.685 1.438 1.53 1.438.846 0 1.532-.644 1.532-1.438V14.375a1.42 1.42 0 00-.746-1.234 1.618 1.618 0 00-1.511-.032L24.5 19.451l-12.545-6.342z"/><path fill-rule="evenodd" clip-rule="evenodd" d="M35.343 7.133a129.66 129.66 0 00-21.685 0l-3.098.26c-3.323.28-6.008 2.663-6.49 5.762a63.935 63.935 0 000 19.69c.482 3.1 3.167 5.482 6.49 5.761l3.098.26c7.214.606 14.47.606 21.684 0l3.098-.26c3.324-.279 6.008-2.662 6.491-5.761a63.938 63.938 0 000-19.69c-.483-3.1-3.167-5.483-6.49-5.762l-3.099-.26zM13.93 9.997c7.033-.59 14.107-.59 21.14 0l3.098.26c1.911.16 3.455 1.531 3.733 3.313a61.228 61.228 0 010 18.86c-.278 1.782-1.822 3.152-3.733 3.313l-3.098.26c-7.033.59-14.107.59-21.14 0l-3.098-.26c-1.91-.16-3.455-1.531-3.733-3.314a61.235 61.235 0 010-18.859c.278-1.782 1.822-3.153 3.733-3.313l3.098-.26z"/></symbol><symbol fill="none" viewBox="0 0 100 50" id="logo" xmlns="http://www.w3.org/2000/svg"><path d="M1.634 20.236l6.6-.022L14.7 40.193l6.093-20.021 6.8-.023 6.267 19.98 6.292-20.022 6.6-.022-9.306 28.031-7.16.024-6.063-18.86-5.937 18.9-7.16.025-9.493-27.969zm67.141 27.775l-23.52.079-.094-28 23.52-.079.02 6-17.12.058.018 5.2 15.12-.051.019 5.6-15.12.05.017 5.2 17.12-.057.02 6zm16.415-.055l-16.8.056-.094-28 16-.053c3.226-.011 5.562.594 7.006 1.816 1.47 1.195 2.21 3.113 2.22 5.753.008 2.747-.812 4.723-2.461 5.928 2.19 1.14 3.291 3.362 3.302 6.67.01 2.72-.717 4.708-2.18 5.967-1.436 1.23-3.767 1.852-6.993 1.863zM74.77 41.99l10.4-.035c1.12-.004 1.932-.22 2.437-.648.505-.455.756-1.15.753-2.083-.003-.933-.258-1.612-.767-2.037-.508-.425-1.322-.636-2.442-.632l-10.4.035.018 5.4zm-.037-11l9.4-.032c1.173-.004 2.026-.206 2.558-.608.558-.402.836-1.043.833-1.923-.003-.853-.258-1.48-.766-1.877-.508-.399-1.322-.596-2.442-.592l-9.6.032.017 5zM.705 12.716l2.448-.008c.149.52.479.905.99 1.152.51.237 1.253.353 2.228.35 1.802-.006 2.701-.412 2.699-1.216-.002-.386-.24-.696-.718-.933-.476-.236-1.31-.454-2.5-.654-1.906-.334-3.216-.755-3.932-1.262C1.216 9.625.862 8.85.858 7.819c-.004-1.212.401-2.103 1.215-2.673.814-.58 2.077-.874 3.788-.88 1.666-.005 2.92.285 3.76.872.84.575 1.354 1.531 1.54 2.868l-2.5.008c-.114-.532-.41-.916-.887-1.153-.466-.248-1.152-.37-2.058-.367-1.689.006-2.532.4-2.53 1.182.002.35.218.633.65.847.442.214 1.242.427 2.399.638 1.973.356 3.329.794 4.067 1.313.739.518 1.11 1.3 1.113 2.342.004 1.224-.423 2.138-1.283 2.741-.86.592-2.184.892-3.975.898-1.722.005-3.015-.285-3.879-.871C1.415 14.997.89 14.04.705 12.716zm16.533-6.108l-.008-2.244 11.645-.039.008 2.244-4.624.016.032 9.656-2.396.008-.033-9.656-4.624.015zM35.63 4.303l2.397-.008.021 6.528c.004 1.144.273 1.976.808 2.496.534.52 1.385.777 2.552.773 1.168-.004 2.011-.267 2.53-.79.532-.523.795-1.357.791-2.502l-.021-6.528 2.397-.008.022 6.715c.006 1.87-.442 3.232-1.346 4.085-.904.841-2.359 1.266-4.365 1.272-2.006.007-3.47-.407-4.39-1.243-.91-.847-1.368-2.205-1.374-4.075l-.022-6.715zm18.975 11.836l-.04-11.9 5.066-.017c2.131-.007 3.68.458 4.646 1.395.978.938 1.47 2.45 1.477 4.535.007 2.085-.475 3.6-1.447 4.543-.96.944-2.505 1.42-4.636 1.427l-5.066.017zm2.39-2.252l2.584-.009c1.337-.004 2.305-.296 2.904-.876.599-.592.896-1.54.891-2.842-.004-1.304-.308-2.243-.91-2.82-.603-.587-1.573-.878-2.91-.874l-2.584.009.025 7.412zm15.995 2.19l-.04-11.9 2.397-.008.04 11.9-2.397.008zM88.665 3.972c2.13-.008 3.679.469 4.646 1.43.977.96 1.47 2.51 1.477 4.652.007 2.13-.475 3.685-1.446 4.663-.96.967-2.506 1.453-4.636 1.46-2.142.008-3.697-.469-4.663-1.429-.967-.971-1.454-2.522-1.46-4.653-.008-2.142.469-3.696 1.429-4.663.96-.966 2.51-1.453 4.653-1.46zm-2.829 3.171c-.587.614-.878 1.595-.874 2.944.005 1.349.303 2.328.894 2.938.591.61 1.539.913 2.842.909 1.303-.005 2.249-.314 2.836-.928.587-.614.879-1.595.874-2.944-.004-1.349-.302-2.328-.894-2.938-.591-.621-1.538-.93-2.842-.925-1.303.004-2.248.319-2.836.944z" fill="#fff"/></symbol><symbol viewBox="0 0 50 37" id="ppl" xmlns="http://www.w3.org/2000/svg"><path d="M38.075 16.47c3.634 0 6.58-3.024 6.58-6.753s-2.946-6.752-6.58-6.752c-3.633 0-6.579 3.023-6.579 6.752 0 3.73 2.946 6.752 6.58 6.752zm-23.061 5.122C6.722 21.592 0 28.49 0 37h30.028c0-8.51-6.722-15.408-15.014-15.408zm23.061-.533c-3.098 0-5.92 1.214-8.039 3.203a20.027 20.027 0 014.131 9.035H50c0-6.76-5.339-12.238-11.925-12.238zm-23.061-4.057c4.575 0 8.284-3.806 8.284-8.5C23.298 3.805 19.589 0 15.014 0 10.439 0 6.73 3.806 6.73 8.501c0 4.695 3.71 8.501 8.284 8.501z"/></symbol><symbol viewBox="0 0 43 40" id="telegram" xmlns="http://www.w3.org/2000/svg"><path d="M16.846 26.398l-.673 11.179c.989 0 1.426-.501 1.977-1.096l4.75-5.123 9.881 8.097c1.819 1.113 3.131.537 3.584-1.872L42.85 3.68C43.517.728 41.837-.611 40.098.265L2.007 16.554c-2.6 1.156-2.584 2.765-.473 3.482l9.774 3.383 22.63-15.833c1.068-.719 2.048-.332 1.243.46L16.846 26.397z"/></symbol><symbol viewBox="0 0 49 33" id="vk" xmlns="http://www.w3.org/2000/svg"><path d="M47.891 2.269c-.551 1.961-1.294 3.668-2.226 5.219l.04-.07a285.951 285.951 0 01-3.278 5.98c-1.09 1.784-1.666 2.709-1.73 2.772-.282.4-.478.89-.545 1.427l-.002.017c.055.49.255.917.547 1.236l.817 1.03c4.37 5.081 6.828 8.583 7.374 10.507.071.213.112.457.112.714 0 .448-.127.862-.341 1.201l.004-.007c-.36.419-.862.677-1.417.677-.061 0-.125-.002-.184-.009h.008-5.382a2.688 2.688 0 01-1.818-.725l.006.004a15.208 15.208 0 01-1.942-2.19l-.018-.028a65.807 65.807 0 00-2.503-3.038c-2.426-2.609-4.217-3.913-5.371-3.913a1.482 1.482 0 00-1.054.312l.006-.005c-.212.3-.34.689-.34 1.107 0 .083.003.161.014.242v-.009a32.75 32.75 0 00-.078 3.241v-.039V30.6c.02.108.033.233.033.36 0 .56-.225 1.058-.576 1.389l-.002.002a5.861 5.861 0 01-3.302.617l.027.002c-3.215-.07-6.196-1.134-8.73-2.93l.071.047c-3.085-2.121-5.642-4.882-7.59-8.144l-.055-.097c-1.85-2.777-3.575-5.914-5.046-9.223l-.143-.355c-.86-1.853-1.75-4.131-2.517-6.474l-.123-.427A17.133 17.133 0 01.004 1.82L0 1.762C0 .595.607.012 1.821.012h5.371a2.009 2.009 0 011.509.52L8.697.526a4.37 4.37 0 01.86 1.82l.006.028c.988 3.158 2.036 5.81 3.24 8.352l-.136-.317c.984 2.241 2.072 4.17 3.314 5.951l-.047-.071c1.089 1.512 1.938 2.268 2.548 2.268a.444.444 0 00.066.003c.302 0 .565-.185.708-.462l.002-.005a4.602 4.602 0 00.227-1.818v.014-8.962a8.212 8.212 0 00-.654-2.927l.017.044a6.982 6.982 0 00-.92-1.606l.007.01a2.673 2.673 0 01-.635-1.43l-.002-.014c0-.393.16-.747.408-.978l.002-.002a1.3 1.3 0 01.94-.411h8.482a.993.993 0 01.15-.01c.397 0 .755.204.992.523l.002.002a3.473 3.473 0 01.324 1.763V2.28v11.951a2.492 2.492 0 00.278 1.35l-.004-.01c.149.25.398.412.68.412h.002a1.79 1.79 0 00.962-.375l-.006.005a7.643 7.643 0 001.447-1.481l.009-.012a36.168 36.168 0 003.38-5.198l.079-.161a53.527 53.527 0 002.15-4.605l.127-.34.91-2.06C38.93.726 39.778 0 40.777 0c.039 0 .077 0 .116.002h-.006 5.373c1.45 0 1.995.756 1.633 2.267h-.002z"/></symbol></svg>