<svg width="3720" height="1353" viewBox="0 0 3720 1353" fill="none" xmlns="http://www.w3.org/2000/svg">
<path d="M3718.93 989.249C3193.18 1383.28 2678.61 696.211 2282.89 692.136C1712.62 686.264 1598.58 1366.84 1304.48 1080.27C1010.4 793.73 734.771 544.823 494.449 1040.45C254.127 1536.08 5.62988 1293.07 5.62988 1293.07" stroke="white" stroke-opacity="0.1" stroke-width="0.6687" stroke-miterlimit="10"/>
<path d="M5.54004 1284.36C8.86412 1282.83 263.71 1531.85 504.691 1043.72C745.672 555.608 1014.95 786.75 1309.42 1069.3C1604.42 1351.92 1720.23 697.499 2293.23 702.202C2690.17 705.528 3198.27 1365.04 3717.16 974.03" stroke="white" stroke-opacity="0.1" stroke-width="0.6738" stroke-miterlimit="10"/>
<path d="M5.4502 1275.64C12.0984 1272.58 273.293 1527.57 514.933 1046.98C756.572 566.394 1019.5 779.769 1314.33 1058.34C1610.23 1336.99 1727.77 708.764 2303.53 712.269C2701.7 714.846 3203.3 1346.76 3715.39 958.78" stroke="white" stroke-opacity="0.1" stroke-width="0.679" stroke-miterlimit="10"/>
<path d="M5.36035 1266.92C15.3326 1262.33 282.906 1523.32 525.175 1050.25C767.443 577.18 1024.06 772.788 1319.24 1047.37C1616.04 1322.1 1735.35 720.029 2313.86 722.336C2713.26 724.133 3208.4 1328.46 3713.63 943.56" stroke="white" stroke-opacity="0.1" stroke-width="0.6841" stroke-miterlimit="10"/>
<path d="M5.27051 1258.17C18.5668 1252.09 292.489 1519 535.416 1053.48C778.344 587.965 1028.61 765.778 1324.15 1036.41C1621.88 1307.21 1742.9 731.264 2324.16 732.432C2724.82 733.481 3213.43 1310.21 3711.83 928.371" stroke="white" stroke-opacity="0.1" stroke-width="0.6893" stroke-miterlimit="10"/>
<path d="M5.18066 1249.45C21.8011 1241.84 302.072 1514.75 545.658 1056.75C789.244 598.751 1032.62 759.426 1329.06 1025.44C1627.12 1292.92 1750.44 742.529 2334.46 742.499C2736.35 742.798 3218.49 1291.94 3710.06 913.151" stroke="white" stroke-opacity="0.1" stroke-width="0.6944" stroke-miterlimit="10"/>
<path d="M5.09082 1240.73C25.0652 1231.6 311.655 1510.49 555.9 1060.01C800.145 609.536 1037.08 752.565 1334 1014.48C1632.87 1278.12 1758.05 753.794 2344.79 752.565C2747.91 752.116 3223.55 1273.66 3708.3 897.901" stroke="white" stroke-opacity="0.1" stroke-width="0.6996" stroke-miterlimit="10"/>
<path d="M5.00098 1232.02C28.2995 1221.35 321.268 1506.21 566.142 1063.28C811.015 620.352 1041.54 745.704 1338.92 1003.51C1638.59 1263.35 1765.6 765.029 2355.1 762.632C2759.44 761.404 3228.61 1255.38 3706.53 882.682" stroke="white" stroke-opacity="0.1" stroke-width="0.7047" stroke-miterlimit="10"/>
<path d="M4.91113 1223.3C31.5337 1211.1 330.851 1501.95 576.383 1066.55C821.916 631.138 1046.04 738.844 1343.83 992.545C1644.34 1248.58 1773.17 776.294 2365.43 772.729C2771.02 770.751 3233.7 1237.14 3704.76 867.492" stroke="white" stroke-opacity="0.1" stroke-width="0.7099" stroke-miterlimit="10"/>
<path d="M4.85156 1214.58C34.7982 1200.86 340.464 1497.7 586.655 1069.81C832.847 641.923 1050.53 731.983 1348.77 981.609C1650.09 1233.81 1780.75 787.589 2375.73 782.825C2782.55 780.099 3238.73 1218.89 3703 852.272" stroke="white" stroke-opacity="0.1" stroke-width="0.715" stroke-miterlimit="10"/>
<path d="M4.76172 1205.83C38.0325 1190.58 350.077 1493.39 596.897 1073.05C843.748 652.709 1055.02 725.092 1353.68 970.614C1655.84 1219.01 1788.33 798.794 2386.06 792.862C2794.11 789.386 3243.82 1200.59 3701.23 837.023" stroke="white" stroke-opacity="0.1" stroke-width="0.7201" stroke-miterlimit="10"/>
<path d="M4.67188 1197.11C41.2667 1180.33 359.66 1489.13 607.139 1076.31C854.618 663.494 1059.51 718.231 1358.59 959.649C1661.56 1204.21 1795.87 810.059 2396.36 802.958C2805.64 798.734 3248.85 1182.34 3699.46 821.833" stroke="white" stroke-opacity="0.1" stroke-width="0.7253" stroke-miterlimit="10"/>
<path d="M4.58203 1188.39C44.5009 1170.12 369.243 1484.85 617.381 1079.58C865.519 674.28 1063.98 711.34 1363.53 948.683C1667.34 1189.41 1803.45 821.323 2406.69 813.025C2817.2 808.021 3253.95 1164.04 3697.69 806.613" stroke="white" stroke-opacity="0.1" stroke-width="0.7304" stroke-miterlimit="10"/>
<path d="M4.49219 1179.68C47.7352 1159.87 378.855 1480.59 627.622 1082.84C876.389 685.095 1068.5 704.48 1368.44 937.748C1673.09 1174.67 1811.02 832.589 2417 823.121C2828.76 817.369 3258.98 1145.79 3695.9 791.393" stroke="white" stroke-opacity="0.1" stroke-width="0.7356" stroke-miterlimit="10"/>
<path d="M4.40234 1170.96C50.9694 1149.63 388.438 1476.34 637.864 1086.11C887.29 695.881 1072.99 697.619 1373.35 926.783C1678.87 1159.87 1818.57 843.853 2427.3 833.188C2840.29 826.686 3264.04 1127.51 3694.13 776.174" stroke="white" stroke-opacity="0.1" stroke-width="0.7407" stroke-miterlimit="10"/>
<path d="M4.3125 1162.21C54.2036 1139.35 398.021 1472.02 648.106 1089.35C898.191 706.667 1077.48 690.698 1378.27 915.787C1684.62 1145.04 1826.15 855.088 2437.6 843.254C2851.82 836.004 3269.1 1109.24 3692.33 760.954" stroke="white" stroke-opacity="0.1" stroke-width="0.7459" stroke-miterlimit="10"/>
<path d="M4.22266 1153.49C57.4379 1129.1 407.604 1467.77 658.348 1092.61C909.091 717.452 1082 683.807 1383.18 904.822C1690.37 1130.24 1833.69 866.323 2447.93 853.321C2863.38 845.291 3274.16 1090.96 3690.6 745.734" stroke="white" stroke-opacity="0.1" stroke-width="0.751" stroke-miterlimit="10"/>
<path d="M4.13281 1144.77C60.6721 1118.86 417.217 1463.52 668.589 1095.88C919.962 728.238 1086.5 676.946 1388.09 893.857C1696.15 1115.44 1841.24 877.588 2458.23 863.387C2874.94 854.609 3279.22 1072.69 3688.8 730.485" stroke="white" stroke-opacity="0.1" stroke-width="0.7562" stroke-miterlimit="10"/>
<path d="M4.04297 1136.05C63.9064 1108.61 426.8 1459.23 678.831 1099.14C930.862 739.053 1091.02 670.055 1393.03 882.921C1701.96 1100.67 1848.85 888.883 2468.56 873.484C2886.5 863.956 3284.28 1054.44 3687.06 715.295" stroke="white" stroke-opacity="0.1" stroke-width="0.7613" stroke-miterlimit="10"/>
<path d="M3.98291 1127.33C67.2003 1098.39 436.413 1454.98 689.103 1102.41C941.793 749.839 1095.57 663.165 1397.97 871.956C1707.77 1085.87 1856.42 900.148 2478.9 883.58C2898.06 873.304 3289.37 1036.2 3685.3 700.105" stroke="white" stroke-opacity="0.1" stroke-width="0.7664" stroke-miterlimit="10"/>
<path d="M3.89307 1118.62C70.4346 1088.15 446.026 1450.69 699.344 1105.67C952.693 760.625 1100.12 656.274 1402.88 860.991C1713.55 1071.04 1864 911.383 2489.2 893.647C2909.59 882.592 3294.4 1017.92 3683.53 684.886" stroke="white" stroke-opacity="0.1" stroke-width="0.7716" stroke-miterlimit="10"/>
<path d="M3.80322 1109.87C73.6688 1077.87 455.609 1446.41 709.586 1108.91C963.564 771.41 1104.64 649.353 1407.79 849.995C1719.36 1056.21 1871.55 922.618 2499.5 903.683C2921.15 891.879 3299.46 999.585 3681.73 669.606" stroke="white" stroke-opacity="0.1" stroke-width="0.7767" stroke-miterlimit="10"/>
<path d="M3.71338 1101.15C76.903 1067.62 465.192 1442.15 719.828 1112.18C974.465 782.196 1109.19 642.462 1412.7 839.06C1725.14 1041.41 1879.09 933.913 2509.83 913.78C2932.71 901.227 3304.55 981.34 3679.97 654.416" stroke="white" stroke-opacity="0.1" stroke-width="0.7819" stroke-miterlimit="10"/>
<path d="M3.62354 1092.43C80.1373 1057.38 474.804 1437.87 730.07 1115.44C985.335 793.011 1113.72 635.541 1417.62 828.094C1730.95 1026.61 1886.67 945.148 2520.13 923.876C2944.24 910.574 3309.59 963.094 3678.2 639.227" stroke="white" stroke-opacity="0.1" stroke-width="0.787" stroke-miterlimit="10"/>
<path d="M3.53369 1083.71C83.3715 1047.13 484.387 1433.62 740.312 1118.71C996.236 803.797 1118.27 628.621 1422.56 817.099C1736.79 1011.75 1894.25 956.383 2530.46 933.913C2955.8 919.832 3314.68 944.789 3676.43 623.947" stroke="white" stroke-opacity="0.1" stroke-width="0.7922" stroke-miterlimit="10"/>
<path d="M3.44385 1074.99C86.6057 1036.89 493.97 1429.36 750.553 1121.97C1007.14 814.582 1122.82 621.73 1427.47 806.164C1742.57 996.949 1901.82 967.678 2540.77 944.01C2967.36 929.18 3319.71 926.543 3674.67 608.757" stroke="white" stroke-opacity="0.1" stroke-width="0.7973" stroke-miterlimit="10"/>
<path d="M3.354 1066.25C89.84 1026.64 503.553 1425.05 760.795 1125.21C1018.04 825.338 1127.37 614.779 1432.38 795.168C1748.41 982.089 1909.37 978.883 2551.07 954.046C2978.88 938.467 3324.77 908.237 3672.87 593.508" stroke="white" stroke-opacity="0.1" stroke-width="0.8024" stroke-miterlimit="10"/>
<path d="M3.26416 1057.53C93.0742 1016.39 513.166 1420.79 771.037 1128.47C1028.91 836.154 1131.92 607.859 1437.29 784.233C1754.22 967.259 1916.95 990.178 2561.37 964.173C2990.41 947.845 3329.8 890.022 3671.1 578.348" stroke="white" stroke-opacity="0.1" stroke-width="0.8076" stroke-miterlimit="10"/>
<path d="M3.2041 1048.81C96.3382 1006.15 522.779 1416.51 781.308 1131.74C1039.84 846.939 1136.54 600.938 1442.23 773.268C1760.06 952.428 1924.52 1001.44 2571.7 974.239C3001.97 957.162 3334.89 871.746 3669.34 563.098" stroke="white" stroke-opacity="0.1" stroke-width="0.8127" stroke-miterlimit="10"/>
<path d="M3.11426 1040.09C99.5725 995.9 532.362 1412.25 791.55 1135C1050.74 857.755 1141.09 594.017 1447.14 762.302C1765.89 937.568 1932.07 1012.68 2582.03 984.306C3013.56 966.45 3339.98 853.44 3667.6 547.878" stroke="white" stroke-opacity="0.1" stroke-width="0.8179" stroke-miterlimit="10"/>
<path d="M3.02441 1031.37C102.807 985.654 541.975 1408 801.792 1138.27C1061.61 868.54 1145.67 587.036 1452.08 751.337C1771.73 922.738 1939.68 1023.94 2592.36 994.402C3025.12 975.797 3345.04 835.195 3665.83 532.689" stroke="white" stroke-opacity="0.1" stroke-width="0.823" stroke-miterlimit="10"/>
<path d="M2.93457 1022.65C106.071 975.408 551.557 1403.72 812.034 1141.54C1072.51 879.326 1150.25 580.115 1456.99 740.401C1777.57 907.908 1947.22 1035.24 2602.66 1004.5C3036.65 985.145 3350.1 816.949 3664.03 517.499" stroke="white" stroke-opacity="0.1" stroke-width="0.8282" stroke-miterlimit="10"/>
<path d="M2.84473 1013.91C109.305 965.131 561.14 1399.43 822.275 1144.77C1083.41 890.112 1154.83 573.165 1461.91 729.406C1783.41 892.988 1954.8 1046.44 2612.97 1014.54C3048.18 994.432 3355.13 798.644 3662.27 502.219" stroke="white" stroke-opacity="0.1" stroke-width="0.8333" stroke-miterlimit="10"/>
<path d="M2.75488 1005.19C112.539 954.915 570.723 1395.18 832.517 1148.04C1094.31 900.897 1159.41 566.214 1466.82 718.441C1789.25 878.128 1962.34 1057.71 2623.27 1024.6C3059.74 1003.72 3360.2 780.368 3660.47 487" stroke="white" stroke-opacity="0.1" stroke-width="0.8385" stroke-miterlimit="10"/>
<path d="M2.66504 996.47C115.774 944.669 580.336 1390.89 842.759 1151.3C1105.18 911.683 1164 559.233 1471.73 707.475C1795.09 863.237 1969.89 1068.97 2633.57 1034.7C3071.27 1013.07 3365.23 762.122 3658.7 471.81" stroke="white" stroke-opacity="0.1" stroke-width="0.8436" stroke-miterlimit="10"/>
<path d="M2.5752 987.751C119.008 934.422 589.919 1386.64 853.001 1154.57C1116.08 922.498 1168.58 552.283 1476.64 696.51C1800.96 848.377 1977.47 1080.24 2643.9 1044.77C3082.83 1022.38 3370.32 743.847 3656.94 456.59" stroke="white" stroke-opacity="0.1" stroke-width="0.8487" stroke-miterlimit="10"/>
<path d="M2.48535 979.033C122.242 924.176 599.502 1382.35 863.242 1157.83C1126.98 933.284 1173.19 545.302 1481.58 685.575C1806.83 833.517 1985.04 1091.5 2654.23 1054.86C3094.39 1031.73 3375.41 725.601 3655.2 441.371" stroke="white" stroke-opacity="0.1" stroke-width="0.8539" stroke-miterlimit="10"/>
<path d="M2.42578 970.285C125.507 913.9 609.145 1378.07 873.514 1161.04C1137.88 944.01 1177.8 538.261 1486.52 674.549C1812.7 818.567 1992.62 1102.74 2664.53 1064.9C3105.92 1040.99 3380.44 707.296 3653.4 426.121" stroke="white" stroke-opacity="0.1" stroke-width="0.859" stroke-miterlimit="10"/>
<path d="M2.33594 961.566C128.741 903.654 618.728 1373.82 883.756 1164.31C1148.78 954.795 1182.41 531.281 1491.43 663.584C1818.57 803.647 2000.2 1113.97 2674.87 1074.96C3117.51 1050.31 3385.53 688.99 3651.64 410.901" stroke="white" stroke-opacity="0.1" stroke-width="0.8642" stroke-miterlimit="10"/>
<path d="M2.24609 952.848C131.975 893.407 628.311 1369.53 893.998 1167.57C1159.68 965.611 1187 524.3 1496.35 652.619C1824.44 788.727 2007.77 1125.21 2685.17 1085.03C3129.04 1059.63 3390.56 670.715 3649.87 395.652" stroke="white" stroke-opacity="0.1" stroke-width="0.8693" stroke-miterlimit="10"/>
<path d="M2.15625 944.13C135.209 883.161 637.924 1365.28 904.24 1170.84C1170.59 976.426 1191.61 517.289 1501.26 641.683C1830.31 773.837 2015.32 1136.5 2695.47 1095.13C3140.57 1068.97 3395.62 652.469 3648.07 380.462" stroke="white" stroke-opacity="0.1" stroke-width="0.8745" stroke-miterlimit="10"/>
<path d="M2.06641 935.411C138.444 872.945 647.507 1361.02 914.481 1174.1C1181.46 987.212 1196.22 510.279 1506.2 630.718C1836.18 758.917 2022.9 1147.77 2705.83 1105.19C3152.16 1078.29 3400.71 634.193 3646.37 365.242" stroke="white" stroke-opacity="0.1" stroke-width="0.8796" stroke-miterlimit="10"/>
<path d="M1.97656 926.663C141.678 862.668 657.09 1356.71 924.723 1177.34C1192.36 997.968 1200.83 503.238 1511.11 619.723C1842.05 743.967 2030.47 1159 2716.13 1115.26C3163.72 1087.58 3405.77 615.918 3644.57 350.023" stroke="white" stroke-opacity="0.1" stroke-width="0.8847" stroke-miterlimit="10"/>
<path d="M1.88672 917.944C144.942 852.422 666.673 1352.45 934.965 1180.6C1203.26 1008.78 1205.44 496.227 1516.02 608.757C1847.92 729.017 2038.02 1170.24 2726.43 1125.33C3175.25 1096.9 3410.84 597.642 3642.8 334.773" stroke="white" stroke-opacity="0.1" stroke-width="0.8899" stroke-miterlimit="10"/>
<path d="M1.79688 909.226C148.176 842.176 676.286 1348.17 945.207 1183.87C1214.13 1019.57 1210.06 489.217 1520.93 597.792C1853.79 714.067 2045.6 1181.5 2736.74 1135.39C3186.77 1106.21 3415.87 579.367 3641.01 319.553" stroke="white" stroke-opacity="0.1" stroke-width="0.895" stroke-miterlimit="10"/>
<path d="M1.70703 900.508C151.41 831.929 685.869 1343.92 955.449 1187.14C1225.03 1030.35 1214.67 482.176 1525.84 586.857C1859.66 699.147 2053.14 1192.77 2747.04 1145.49C3198.3 1115.56 3420.93 561.121 3639.24 304.364" stroke="white" stroke-opacity="0.1" stroke-width="0.9002" stroke-miterlimit="10"/>
<path d="M1.61719 891.789C154.645 821.683 695.452 1339.66 965.69 1190.4C1235.93 1041.17 1219.28 475.136 1530.75 575.891C1865.53 684.166 2060.69 1204.03 2757.34 1155.59C3209.86 1124.88 3425.96 542.875 3637.44 289.174" stroke="white" stroke-opacity="0.1" stroke-width="0.9053" stroke-miterlimit="10"/>
<path d="M1.55713 883.071C157.909 811.437 705.094 1335.38 975.962 1193.67C1246.83 1051.96 1223.92 468.095 1535.73 564.926C1871.46 669.187 2068.33 1215.3 2767.73 1165.65C3221.48 1134.2 3431.11 524.57 3635.74 273.924" stroke="white" stroke-opacity="0.1" stroke-width="0.9105" stroke-miterlimit="10"/>
<path d="M1.46729 874.323C161.143 801.191 714.677 1331.09 986.204 1196.9C1257.73 1062.71 1228.53 460.995 1540.64 553.931C1877.33 654.177 2075.87 1226.5 2778.03 1175.69C3233.01 1143.48 3436.14 506.264 3633.97 258.675" stroke="white" stroke-opacity="0.1" stroke-width="0.9156" stroke-miterlimit="10"/>
<path d="M1.37744 865.604C164.377 790.944 724.26 1326.84 996.445 1200.17C1268.63 1073.53 1233.14 453.954 1545.55 542.995C1883.23 639.227 2083.45 1237.8 2788.33 1185.82C3244.54 1152.86 3441.2 488.048 3632.17 243.515" stroke="white" stroke-opacity="0.1" stroke-width="0.9208" stroke-miterlimit="10"/>
<path d="M1.2876 856.886C167.611 780.698 733.873 1322.55 1006.69 1203.43C1279.53 1084.31 1237.76 446.883 1550.46 532.03C1889.1 624.247 2091 1249.06 2798.64 1195.88C3256.1 1162.15 3446.26 469.773 3630.4 228.265" stroke="white" stroke-opacity="0.1" stroke-width="0.9259" stroke-miterlimit="10"/>
<path d="M1.19775 848.168C170.846 770.451 743.456 1318.3 1016.93 1206.7C1290.4 1095.1 1242.37 439.813 1555.37 521.064C1894.96 609.237 2098.54 1260.3 2808.94 1205.95C3267.63 1171.47 3451.29 451.497 3628.61 213.046" stroke="white" stroke-opacity="0.1" stroke-width="0.931" stroke-miterlimit="10"/>
<path d="M1.10791 839.449C174.08 760.205 753.039 1314.02 1027.17 1209.96C1301.3 1105.91 1246.98 432.712 1560.28 510.099C1900.83 594.227 2106.12 1271.56 2819.24 1216.02C3279.16 1180.78 3456.35 433.222 3626.84 197.826" stroke="white" stroke-opacity="0.1" stroke-width="0.9362" stroke-miterlimit="10"/>
<path d="M1.01807 830.701C177.344 749.959 762.652 1309.73 1037.41 1213.23C1312.2 1116.7 1251.59 425.612 1565.22 499.134C1906.73 579.187 2113.7 1282.83 2829.57 1226.11C3290.72 1190.13 3461.42 414.976 3625.07 182.636" stroke="white" stroke-opacity="0.1" stroke-width="0.9413" stroke-miterlimit="10"/>
<path d="M0.928223 821.983C180.548 739.682 772.235 1305.48 1047.65 1216.47C1323.07 1127.48 1256.17 418.481 1570.13 488.168C1912.6 564.147 2121.27 1294.09 2839.9 1236.18C3302.31 1199.42 3466.51 396.7 3623.34 167.386" stroke="white" stroke-opacity="0.1" stroke-width="0.9465" stroke-miterlimit="10"/>
<path d="M0.838379 813.264C183.783 729.466 781.817 1301.19 1057.9 1219.73C1333.97 1138.27 1260.78 411.381 1575.04 477.203C1918.47 549.107 2128.82 1305.33 2850.2 1246.25C3313.84 1208.74 3471.54 378.425 3621.54 152.167" stroke="white" stroke-opacity="0.1" stroke-width="0.9516" stroke-miterlimit="10"/>
<path d="M0.778809 804.546C187.077 719.22 791.431 1296.94 1068.17 1223C1344.87 1149.06 1265.43 404.28 1579.99 466.238C1924.37 534.067 2136.43 1316.59 2860.54 1256.31C3325.4 1218.05 3476.63 360.119 3619.77 136.947" stroke="white" stroke-opacity="0.1" stroke-width="0.9568" stroke-miterlimit="10"/>
<path d="M0.688965 795.828C190.311 708.974 801.044 1292.68 1078.41 1226.26C1355.78 1159.87 1270.04 397.15 1584.9 455.272C1930.21 519.027 2143.97 1327.86 2870.84 1266.41C3336.93 1227.4 3481.69 341.874 3618.01 121.758" stroke="white" stroke-opacity="0.1" stroke-width="0.9619" stroke-miterlimit="10"/>
<path d="M0.599121 787.079C193.546 698.697 810.627 1288.37 1088.65 1229.5C1366.68 1170.63 1274.62 389.989 1589.81 444.277C1936.08 503.927 2151.52 1339.06 2881.14 1276.45C3348.49 1236.69 3486.72 323.568 3616.21 106.478" stroke="white" stroke-opacity="0.1" stroke-width="0.967" stroke-miterlimit="10"/>
<path d="M0.509277 778.361C196.78 688.451 820.209 1284.12 1098.89 1232.76C1377.58 1181.41 1279.23 382.859 1594.75 433.341C1941.95 488.887 2159.09 1350.36 2891.47 1286.54C3360.05 1246.01 3491.81 305.322 3614.47 91.2881" stroke="white" stroke-opacity="0.1" stroke-width="0.9722" stroke-miterlimit="10"/>
<path d="M0.419434 769.642C200.014 678.204 829.822 1279.83 1109.13 1236.03C1388.48 1192.23 1283.81 375.728 1599.66 422.376C1947.82 473.787 2166.67 1361.62 2901.8 1296.61C3371.61 1255.32 3496.87 287.047 3612.71 76.0684" stroke="white" stroke-opacity="0.1" stroke-width="0.9773" stroke-miterlimit="10"/>
<path d="M0.32959 760.924C203.248 667.958 839.405 1275.58 1119.38 1239.3C1399.35 1203.01 1288.43 368.568 1604.57 411.411C1953.69 458.718 2174.25 1372.86 2912.1 1306.71C3383.14 1264.67 3501.93 268.801 3610.94 60.8489" stroke="white" stroke-opacity="0.1" stroke-width="0.9825" stroke-miterlimit="10"/>
<path d="M0.239746 752.206C206.482 657.712 848.988 1271.32 1129.62 1242.56C1410.25 1213.8 1293.07 360.868 1609.48 400.445C1959.62 442.989 2181.79 1384.12 2922.41 1316.77C3394.66 1273.99 3506.96 250.526 3609.14 45.6292" stroke="white" stroke-opacity="0.1" stroke-width="0.9876" stroke-miterlimit="10"/>
<path d="M0.149902 743.487C209.717 647.495 858.571 1267.04 1139.86 1245.83C1421.15 1224.61 1297.62 353.888 1614.39 389.51C1965.46 428.098 2189.37 1395.39 2932.74 1326.84C3406.25 1283.28 3512.06 232.25 3607.41 30.4094" stroke="white" stroke-opacity="0.1" stroke-width="0.9928" stroke-miterlimit="10"/>
<path d="M0.0600586 734.739C212.951 637.219 868.184 1262.75 1150.1 1249.06C1432.02 1235.37 1302.17 346.877 1619.31 378.515C1971.24 413.178 2196.92 1406.62 2943.01 1336.9C3417.75 1292.59 3517.06 213.974 3605.58 15.1897" stroke="white" stroke-opacity="0.1" stroke-width="0.9979" stroke-miterlimit="10"/>
<path d="M0 726.021C216.215 626.973 877.797 1258.5 1160.37 1252.33C1442.95 1246.16 1306.78 339.896 1624.28 367.549C1977.11 398.288 2204.52 1417.89 2953.37 1347C3429.34 1301.94 3522.18 195.699 3603.84 0" stroke="white" stroke-opacity="0.1" stroke-width="1.0031" stroke-miterlimit="10"/>
</svg>
